<svg width="49" height="46" viewBox="0 0 49 46" fill="none" xmlns="http://www.w3.org/2000/svg">
<path d="M21.2 3.125C23.7 1.625 26.7 1.625 29.2 3.125L40.6 9.725C43 11.125 44.5 13.725 44.5 16.525V30.025C44.5 32.825 43 35.425 40.6 36.825L29.3 43.425C26.8 44.925 23.8 44.925 21.3 43.425L9.9 36.925C7.5 35.525 6 32.925 6 30.125V16.525C6 13.725 7.5 11.125 9.9 9.725L21.2 3.125Z" fill="#001042"/>
<path d="M28.4 10.925H27.6V20.825H24.1V14.925H17.2V30.025C17.2 33.625 20 36.425 23.4 36.425H24.2V27.025H27.7V33.225H34.6V17.325C34.6 13.825 31.8 10.925 28.4 10.925ZM22.6 34.825C20.4 34.425 18.7 32.425 18.7 30.025V27.125H22.6V34.825ZM33 31.725H29.1V25.525H18.7V16.525H22.6V22.425H33V31.725ZM33 20.925H29.1V12.625C31.3 13.025 33 15.025 33 17.425V20.925Z" fill="white"/>
</svg>
