<svg width="160" height="46" viewBox="0 0 160 46" fill="none" xmlns="http://www.w3.org/2000/svg">
<path d="M18.2 2.40002C20.7 0.900026 23.7 0.900026 26.2 2.40002L37.6 9.00002C40 10.4 41.5 13 41.5 15.8V29.3C41.5 32.1 40 34.7 37.6 36.1L26.3 42.7C23.8 44.2 20.8 44.2 18.3 42.7L6.9 36.2C4.5 34.8 3 32.2 3 29.4V15.8C3 13 4.5 10.4 6.9 9.00002L18.2 2.40002Z" fill="white"/>
<path d="M25.4 10.2H24.6V20.1H21.1V14.2H14.2V29.3C14.2 32.9 17 35.7 20.4 35.7H21.2V26.3H24.7V32.5H31.6V16.6C31.6 13.1 28.8 10.2 25.4 10.2ZM19.6 34.1C17.4 33.7 15.7 31.7 15.7 29.3V26.4H19.6V34.1ZM30 31H26.1V24.8H15.7V15.8H19.6V21.7H30V31ZM30 20.2H26.1V11.9C28.3 12.3 30 14.3 30 16.7V20.2Z" fill="#001042"/>
<path d="M69.3 14.5V29.8H64.9V24H58.3V29.7H54V24.5C54 21.9 55.2 20.6 57.5 20.6H65V14.4H69.3V14.5ZM54 21.3V14.5H58.4V19.7H57.5C56.4 19.7 54.9 19.9 54 21.3Z" fill="white"/>
<path d="M88 18.4V19.4C87 18.1 85.6 17.8 84.5 17.8H76.9C75.8 17.8 75.8 18.7 75.8 19.1V25.5H73.9C72.8 25.5 71.4 24.7 71.4 22.8V18.4C71.4 16.2 73 14.5 75 14.5H84.4C86.4 14.5 88 16.2 88 18.4ZM88 22.6V25.8C88 27.9 86.4 29.7 84.4 29.7H75C73 29.7 71.4 28 71.4 25.8V25.2C71.9 26 73.2 26.4 73.9 26.4H82.5C83.6 26.4 83.6 25.5 83.6 25.2V18.8H84.5C86.8 18.8 88 20.1 88 22.6Z" fill="white"/>
<path d="M106.8 14.5C106.3 16.8 104.9 17.8 102.7 17.8H94.5C92.6 17.8 90.5 18.4 89.9 20.5C89.8 20.2 89.8 19.8 89.8 19.4V19C89.8 16.4 92 14.4 94 14.4H106.8V14.5ZM106.9 25.2C106.9 27.8 104.7 29.7 102.7 29.7H94C92.2 29.7 90.2 28.3 89.9 26.4H101.5C102.7 26.4 102.7 25.2 102.7 25.2C102.7 24.8 102.7 24 101.5 24H94C92.9 24 91.7 23.5 91 22.6C90.8 22.3 90.7 21.9 90.7 21.5C90.7 19.6 92.7 18.9 94.2 18.9C94.2 19 94.2 19.1 94.2 19.2V19.5C94.2 19.8 94.2 20.7 95.3 20.7H102.8C105.1 20.6 106.9 22.8 106.9 25.2Z" fill="white"/>
<path d="M123.5 14.5C123.5 16.3 121.7 17.8 119.8 17.8H106.7C106.9 16.1 108.4 14.5 110.2 14.5H123.5ZM117.3 18.8V29.7H113V18.8H117.3Z" fill="white"/>
<path d="M124.6 14.5H129V17.8H124.6V14.5ZM124.6 18.8H129V29.8H124.6V18.8Z" fill="white"/>
<path d="M130.2 17.8C130.4 16.1 131.9 14.5 133.8 14.5H146.2V18L143.8 20.3C143.8 20.2 143.8 20.1 143.8 20C143.8 18.3 142 17.8 140.8 17.8C138.4 17.8 130.2 17.8 130.2 17.8ZM137.2 26.4H147C146.9 27.9 145.6 29.7 143.4 29.7H131.1V26.4L139.5 18.7H140.8C141.8 18.7 143 19 143 20.3C143 20.6 142.9 20.9 142.8 21.2L137.2 26.4Z" fill="white"/>
<path d="M148.3 14.5H152.7V17.8H148.3V14.5ZM148.3 18.8H152.7V29.8H148.3V18.8Z" fill="white"/>
<path d="M54.9652 34.0513C54.8763 34.0513 54.7917 34.0343 54.7113 34.0005C54.633 33.9645 54.5642 33.918 54.505 33.8608C54.4457 33.8016 54.3992 33.7328 54.3653 33.6545C54.3315 33.5741 54.3146 33.4895 54.3146 33.4006V32.0994C54.3146 32.0105 54.3315 31.9269 54.3653 31.8486C54.3992 31.7682 54.4457 31.6995 54.505 31.6423C54.5642 31.5831 54.633 31.5365 54.7113 31.5027C54.7917 31.4667 54.8763 31.4487 54.9652 31.4487H57.1742C57.263 31.4487 57.3466 31.4667 57.4249 31.5027C57.5053 31.5365 57.5751 31.5831 57.6344 31.6423C57.6936 31.6995 57.7402 31.7682 57.774 31.8486C57.8079 31.9269 57.8248 32.0105 57.8248 32.0994V32.6865H57.1742V32.0994H54.9652V33.4006H57.1742C57.263 33.4006 57.3466 33.4176 57.4249 33.4514C57.5053 33.4853 57.5751 33.5318 57.6344 33.5911C57.6936 33.6503 57.7402 33.7201 57.774 33.8005C57.8079 33.8788 57.8248 33.9624 57.8248 34.0513V35.3494C57.8248 35.4382 57.8079 35.5229 57.774 35.6033C57.7402 35.6816 57.6936 35.7503 57.6344 35.8096C57.5751 35.8688 57.5053 35.9154 57.4249 35.9492C57.3466 35.9831 57.263 36 57.1742 36H54.9017C54.8128 36 54.7282 35.9831 54.6478 35.9492C54.5695 35.9154 54.5008 35.8688 54.4415 35.8096C54.3823 35.7503 54.3357 35.6816 54.3019 35.6033C54.268 35.5229 54.2511 35.4382 54.2511 35.3494V34.7654H54.9017V35.3494H57.1742V34.0513H54.9652ZM63.0303 34.6289H60.7927V35.3748H63.0303V36H60.7927C60.7081 36 60.6277 35.9841 60.5515 35.9524C60.4753 35.9185 60.4087 35.8741 60.3516 35.8191C60.2965 35.762 60.2521 35.6953 60.2183 35.6191C60.1865 35.543 60.1706 35.4615 60.1706 35.3748V33.2451C60.1706 33.1584 60.1865 33.0769 60.2183 33.0007C60.2521 32.9246 60.2965 32.859 60.3516 32.804C60.4087 32.7468 60.4753 32.7024 60.5515 32.6707C60.6277 32.6368 60.7081 32.6199 60.7927 32.6199H62.405C62.4918 32.6199 62.5732 32.6368 62.6494 32.6707C62.7256 32.7024 62.7912 32.7468 62.8462 32.804C62.9033 32.859 62.9477 32.9246 62.9795 33.0007C63.0133 33.0769 63.0303 33.1584 63.0303 33.2451V34.6289ZM60.7927 33.2451V34.0037H62.405V33.2451H60.7927ZM65.9315 33.2451V35.3748H67.5438V34.8035H68.1691V35.3748C68.1691 35.4615 68.1521 35.543 68.1183 35.6191C68.0866 35.6953 68.0421 35.762 67.985 35.8191C67.93 35.8741 67.8644 35.9185 67.7882 35.9524C67.712 35.9841 67.6306 36 67.5438 36H65.9315C65.8469 36 65.7665 35.9841 65.6903 35.9524C65.6141 35.9185 65.5475 35.8741 65.4904 35.8191C65.4354 35.762 65.3909 35.6953 65.3571 35.6191C65.3253 35.543 65.3095 35.4615 65.3095 35.3748V33.2451C65.3095 33.1584 65.3253 33.0769 65.3571 33.0007C65.3909 32.9246 65.4354 32.859 65.4904 32.804C65.5475 32.7468 65.6141 32.7024 65.6903 32.6707C65.7665 32.6368 65.8469 32.6199 65.9315 32.6199H67.5438C67.6306 32.6199 67.712 32.6368 67.7882 32.6707C67.8644 32.7024 67.93 32.7468 67.985 32.804C68.0421 32.859 68.0866 32.9246 68.1183 33.0007C68.1521 33.0769 68.1691 33.1584 68.1691 33.2451V33.8164H67.5438V33.2451H65.9315ZM70.4483 32.6199H71.0703V35.3748H72.8128V32.6199H73.438V36H72.8128V35.4287C72.8064 35.507 72.7853 35.5811 72.7493 35.6509C72.7133 35.7207 72.6668 35.7821 72.6096 35.835C72.5546 35.8857 72.4912 35.9259 72.4192 35.9556C72.3473 35.9852 72.2711 36 72.1907 36H71.0703C70.9857 36 70.9053 35.9841 70.8291 35.9524C70.753 35.9185 70.6863 35.8741 70.6292 35.8191C70.5742 35.762 70.5297 35.6953 70.4959 35.6191C70.4641 35.543 70.4483 35.4615 70.4483 35.3748V32.6199ZM76.3361 33.2451V36H75.714V32.6199H76.3361V33.2166C76.3403 33.134 76.3594 33.0568 76.3932 32.9849C76.4271 32.9108 76.4715 32.8473 76.5265 32.7944C76.5837 32.7394 76.6492 32.6971 76.7233 32.6675C76.7974 32.6357 76.8767 32.6199 76.9613 32.6199H77.6247C77.7114 32.6199 77.7918 32.6368 77.8659 32.6707C77.9421 32.7024 78.0087 32.7468 78.0658 32.804C78.123 32.859 78.1674 32.9246 78.1991 33.0007C78.233 33.0769 78.2499 33.1584 78.2499 33.2451V33.8164H77.6247V33.2451H76.3361ZM83.1221 34.6289H80.8846V35.3748H83.1221V36H80.8846C80.7999 36 80.7195 35.9841 80.6434 35.9524C80.5672 35.9185 80.5005 35.8741 80.4434 35.8191C80.3884 35.762 80.344 35.6953 80.3101 35.6191C80.2784 35.543 80.2625 35.4615 80.2625 35.3748V33.2451C80.2625 33.1584 80.2784 33.0769 80.3101 33.0007C80.344 32.9246 80.3884 32.859 80.4434 32.804C80.5005 32.7468 80.5672 32.7024 80.6434 32.6707C80.7195 32.6368 80.7999 32.6199 80.8846 32.6199H82.4969C82.5836 32.6199 82.6651 32.6368 82.7413 32.6707C82.8174 32.7024 82.883 32.7468 82.938 32.804C82.9952 32.859 83.0396 32.9246 83.0713 33.0007C83.1052 33.0769 83.1221 33.1584 83.1221 33.2451V34.6289ZM80.8846 33.2451V34.0037H82.4969V33.2451H80.8846ZM85.4013 33.2451C85.4013 33.1584 85.4172 33.0769 85.4489 33.0007C85.4828 32.9246 85.5272 32.859 85.5822 32.804C85.6393 32.7468 85.706 32.7024 85.7822 32.6707C85.8583 32.6368 85.9387 32.6199 86.0234 32.6199H87.7658V31.3186H88.3911V36H87.7658V35.4287C87.7595 35.507 87.7383 35.5811 87.7023 35.6509C87.6664 35.7207 87.6198 35.7821 87.5627 35.835C87.5077 35.8857 87.4442 35.9259 87.3723 35.9556C87.3003 35.9852 87.2241 36 87.1437 36H86.0234C85.9387 36 85.8583 35.9841 85.7822 35.9524C85.706 35.9185 85.6393 35.8741 85.5822 35.8191C85.5272 35.762 85.4828 35.6953 85.4489 35.6191C85.4172 35.543 85.4013 35.4615 85.4013 35.3748V33.2451ZM86.0234 35.3748H87.7658V33.2451H86.0234V35.3748ZM93.9143 32.0994C93.9143 32.0105 93.9312 31.9269 93.9651 31.8486C93.9989 31.7682 94.0455 31.6995 94.1047 31.6423C94.164 31.5831 94.2327 31.5365 94.311 31.5027C94.3914 31.4667 94.476 31.4487 94.5649 31.4487H97.0342C97.123 31.4487 97.2066 31.4667 97.2849 31.5027C97.3653 31.5365 97.4351 31.5831 97.4944 31.6423C97.5536 31.6995 97.6002 31.7682 97.634 31.8486C97.6679 31.9269 97.6848 32.0105 97.6848 32.0994V32.6865H97.0342V32.0994H94.5649V35.3494H97.0342V34.7654H97.6848V35.3494C97.6848 35.4382 97.6679 35.5229 97.634 35.6033C97.6002 35.6816 97.5536 35.7503 97.4944 35.8096C97.4351 35.8688 97.3653 35.9154 97.2849 35.9492C97.2066 35.9831 97.123 36 97.0342 36H94.5649C94.476 36 94.3914 35.9831 94.311 35.9492C94.2327 35.9154 94.164 35.8688 94.1047 35.8096C94.0455 35.7503 93.9989 35.6816 93.9651 35.6033C93.9312 35.5229 93.9143 35.4382 93.9143 35.3494V32.0994ZM102.82 35.3748C102.82 35.4615 102.803 35.543 102.77 35.6191C102.738 35.6953 102.693 35.762 102.636 35.8191C102.581 35.8741 102.516 35.9185 102.44 35.9524C102.366 35.9841 102.285 36 102.198 36H100.519C100.435 36 100.354 35.9841 100.278 35.9524C100.202 35.9185 100.135 35.8741 100.078 35.8191C100.023 35.762 99.9788 35.6953 99.9449 35.6191C99.9132 35.543 99.8973 35.4615 99.8973 35.3748V33.2451C99.8973 33.1584 99.9132 33.0769 99.9449 33.0007C99.9788 32.9246 100.023 32.859 100.078 32.804C100.135 32.7468 100.202 32.7024 100.278 32.6707C100.354 32.6368 100.435 32.6199 100.519 32.6199H102.198C102.285 32.6199 102.366 32.6368 102.44 32.6707C102.516 32.7024 102.581 32.7468 102.636 32.804C102.693 32.859 102.738 32.9246 102.77 33.0007C102.803 33.0769 102.82 33.1584 102.82 33.2451V35.3748ZM100.519 33.2451V35.3748H102.198V33.2451H100.519ZM108.089 36H107.464V33.2451H105.722V36H105.1V32.6199H105.722V33.2166C105.726 33.134 105.745 33.0568 105.779 32.9849C105.813 32.9108 105.857 32.8473 105.912 32.7944C105.969 32.7394 106.035 32.6971 106.109 32.6675C106.183 32.6357 106.262 32.6199 106.347 32.6199H107.464C107.551 32.6199 107.632 32.6368 107.708 32.6707C107.785 32.7024 107.85 32.7468 107.905 32.804C107.962 32.859 108.007 32.9246 108.039 33.0007C108.072 33.0769 108.089 33.1584 108.089 33.2451V36ZM110.169 32.6199H110.994V31.5789H111.619V32.6199H112.73V33.2451H111.619V35.3748H112.73V36H111.619C111.534 36 111.454 35.9841 111.378 35.9524C111.302 35.9185 111.235 35.8741 111.178 35.8191C111.121 35.762 111.075 35.6953 111.041 35.6191C111.01 35.543 110.994 35.4615 110.994 35.3748V33.2451H110.169V32.6199ZM115.631 33.2451V36H115.009V32.6199H115.631V33.2166C115.635 33.134 115.654 33.0568 115.688 32.9849C115.722 32.9108 115.767 32.8473 115.822 32.7944C115.879 32.7394 115.944 32.6971 116.018 32.6675C116.092 32.6357 116.172 32.6199 116.256 32.6199H116.92C117.006 32.6199 117.087 32.6368 117.161 32.6707C117.237 32.7024 117.304 32.7468 117.361 32.804C117.418 32.859 117.462 32.9246 117.494 33.0007C117.528 33.0769 117.545 33.1584 117.545 33.2451V33.8164H116.92V33.2451H115.631ZM122.481 35.3748C122.481 35.4615 122.464 35.543 122.43 35.6191C122.398 35.6953 122.354 35.762 122.297 35.8191C122.242 35.8741 122.176 35.9185 122.1 35.9524C122.026 35.9841 121.945 36 121.859 36H120.18C120.095 36 120.015 35.9841 119.938 35.9524C119.862 35.9185 119.796 35.8741 119.738 35.8191C119.683 35.762 119.639 35.6953 119.605 35.6191C119.573 35.543 119.558 35.4615 119.558 35.3748V33.2451C119.558 33.1584 119.573 33.0769 119.605 33.0007C119.639 32.9246 119.683 32.859 119.738 32.804C119.796 32.7468 119.862 32.7024 119.938 32.6707C120.015 32.6368 120.095 32.6199 120.18 32.6199H121.859C121.945 32.6199 122.026 32.6368 122.1 32.6707C122.176 32.7024 122.242 32.7468 122.297 32.804C122.354 32.859 122.398 32.9246 122.43 33.0007C122.464 33.0769 122.481 33.1584 122.481 33.2451V35.3748ZM120.18 33.2451V35.3748H121.859V33.2451H120.18ZM125.382 31.3186V36H124.76V31.3186H125.382ZM130.905 36V31.4487H133.397C134.133 31.4487 134.501 31.818 134.501 32.5564V33.2039C134.501 33.9423 134.133 34.3115 133.397 34.3115H131.556V36H130.905ZM131.556 33.6609H133.362C133.535 33.6609 133.66 33.6228 133.736 33.5466C133.812 33.4705 133.85 33.3456 133.85 33.1721V32.5881C133.85 32.4146 133.812 32.2898 133.736 32.2136C133.66 32.1375 133.535 32.0994 133.362 32.0994H131.556V33.6609ZM136.583 34.5242C136.583 34.4374 136.599 34.357 136.631 34.283C136.665 34.2068 136.709 34.1401 136.764 34.083C136.822 34.0259 136.888 33.9814 136.964 33.9497C137.041 33.9159 137.121 33.8989 137.206 33.8989H138.818V33.2451H136.777V32.6199H138.818C138.905 32.6199 138.986 32.6368 139.062 32.6707C139.138 32.7024 139.204 32.7468 139.259 32.804C139.316 32.859 139.361 32.9246 139.392 33.0007C139.426 33.0769 139.443 33.1584 139.443 33.2451V36H138.818V35.4287C138.812 35.507 138.79 35.5811 138.754 35.6509C138.718 35.7207 138.672 35.7821 138.615 35.835C138.56 35.8857 138.496 35.9259 138.424 35.9556C138.352 35.9852 138.276 36 138.196 36H137.206C137.121 36 137.041 35.9841 136.964 35.9524C136.888 35.9185 136.822 35.8741 136.764 35.8191C136.709 35.762 136.665 35.6953 136.631 35.6191C136.599 35.543 136.583 35.4615 136.583 35.3748V34.5242ZM137.206 35.3748H138.818V34.5242H137.206V35.3748ZM144.712 36H144.087V33.2451H142.344V36H141.722V32.6199H142.344V33.2166C142.349 33.134 142.368 33.0568 142.401 32.9849C142.435 32.9108 142.48 32.8473 142.535 32.7944C142.592 32.7394 142.658 32.6971 142.732 32.6675C142.806 32.6357 142.885 32.6199 142.97 32.6199H144.087C144.174 32.6199 144.255 32.6368 144.331 32.6707C144.407 32.7024 144.473 32.7468 144.528 32.804C144.585 32.859 144.63 32.9246 144.661 33.0007C144.695 33.0769 144.712 33.1584 144.712 33.2451V36ZM149.848 34.6289H147.61V35.3748H149.848V36H147.61C147.525 36 147.445 35.9841 147.369 35.9524C147.293 35.9185 147.226 35.8741 147.169 35.8191C147.114 35.762 147.07 35.6953 147.036 35.6191C147.004 35.543 146.988 35.4615 146.988 35.3748V33.2451C146.988 33.1584 147.004 33.0769 147.036 33.0007C147.07 32.9246 147.114 32.859 147.169 32.804C147.226 32.7468 147.293 32.7024 147.369 32.6707C147.445 32.6368 147.525 32.6199 147.61 32.6199H149.222C149.309 32.6199 149.391 32.6368 149.467 32.6707C149.543 32.7024 149.609 32.7468 149.664 32.804C149.721 32.859 149.765 32.9246 149.797 33.0007C149.831 33.0769 149.848 33.1584 149.848 33.2451V34.6289ZM147.61 33.2451V34.0037H149.222V33.2451H147.61ZM152.749 31.3186V36H152.127V31.3186H152.749Z" fill="white"/>
</svg>
